<svg width="1200" height="720" viewBox="0 0 1200 720" fill="none" xmlns="http://www.w3.org/2000/svg" role="img" aria-labelledby="title desc">
  <title id="title">CalBudget calendar overview</title>
  <desc id="desc">A budget calendar with dated income, bills, daily balances, and a projected finish chart.</desc>
  <rect width="1200" height="720" rx="32" fill="#06070D"/>
  <rect x="36" y="38" width="1128" height="72" rx="20" fill="#11131C" stroke="#242838"/>
  <rect x="64" y="60" width="58" height="30" rx="10" fill="#7C3AED"/>
  <text x="138" y="81" fill="#E5E7EB" font-family="Inter, Arial, sans-serif" font-size="20" font-weight="700">CalBudget</text>
  <rect x="420" y="54" width="220" height="40" rx="14" fill="#090A10" stroke="#2A2F40"/>
  <text x="478" y="80" fill="#E5E7EB" font-family="Inter, Arial, sans-serif" font-size="17" font-weight="700">July 2026</text>
  <rect x="760" y="52" width="330" height="44" rx="18" fill="#07180F" stroke="#14532D"/>
  <text x="784" y="78" fill="#34D399" font-family="Inter, Arial, sans-serif" font-size="17" font-weight="800">Projected finish +$1,840</text>
  <rect x="36" y="134" width="260" height="550" rx="22" fill="#101219" stroke="#282D3A"/>
  <text x="64" y="174" fill="#A78BFA" font-family="Inter, Arial, sans-serif" font-size="15" font-weight="800" letter-spacing="4">THIS MONTH</text>
  <text x="64" y="210" fill="#F8FAFC" font-family="Inter, Arial, sans-serif" font-size="28" font-weight="800">July forecast</text>
  <rect x="64" y="246" width="204" height="86" rx="18" fill="#171923" stroke="#303544"/>
  <text x="84" y="280" fill="#94A3B8" font-family="Inter, Arial, sans-serif" font-size="14" font-weight="800">LOWEST BALANCE</text>
  <text x="84" y="312" fill="#F8FAFC" font-family="Inter, Arial, sans-serif" font-size="32" font-weight="900">$420</text>
  <rect x="64" y="352" width="204" height="86" rx="18" fill="#171923" stroke="#303544"/>
  <text x="84" y="386" fill="#94A3B8" font-family="Inter, Arial, sans-serif" font-size="14" font-weight="800">UPCOMING</text>
  <text x="84" y="418" fill="#F8FAFC" font-family="Inter, Arial, sans-serif" font-size="32" font-weight="900">6 items</text>
  <rect x="64" y="458" width="204" height="154" rx="18" fill="#171923" stroke="#303544"/>
  <text x="84" y="494" fill="#94A3B8" font-family="Inter, Arial, sans-serif" font-size="14" font-weight="800">MONTH SIGNALS</text>
  <text x="84" y="532" fill="#CBD5E1" font-family="Inter, Arial, sans-serif" font-size="18">Income used</text>
  <text x="220" y="532" fill="#FBBF24" font-family="Inter, Arial, sans-serif" font-size="18" font-weight="800">72%</text>
  <text x="84" y="572" fill="#CBD5E1" font-family="Inter, Arial, sans-serif" font-size="18">Cleared</text>
  <text x="232" y="572" fill="#60A5FA" font-family="Inter, Arial, sans-serif" font-size="18" font-weight="800">18%</text>
  <rect x="324" y="134" width="840" height="550" rx="22" fill="#090A10" stroke="#282D3A"/>
  <g fill="#1A1D27" stroke="#2A2F40">
    <rect x="344" y="178" width="112" height="108" rx="14"/>
    <rect x="466" y="178" width="112" height="108" rx="14"/>
    <rect x="588" y="178" width="112" height="108" rx="14"/>
    <rect x="710" y="178" width="112" height="108" rx="14"/>
    <rect x="832" y="178" width="112" height="108" rx="14"/>
    <rect x="954" y="178" width="112" height="108" rx="14"/>
    <rect x="344" y="300" width="112" height="108" rx="14"/>
    <rect x="466" y="300" width="112" height="108" rx="14"/>
    <rect x="588" y="300" width="112" height="108" rx="14"/>
    <rect x="710" y="300" width="112" height="108" rx="14"/>
    <rect x="832" y="300" width="112" height="108" rx="14"/>
    <rect x="954" y="300" width="112" height="108" rx="14"/>
    <rect x="344" y="422" width="112" height="108" rx="14"/>
    <rect x="466" y="422" width="112" height="108" rx="14"/>
    <rect x="588" y="422" width="112" height="108" rx="14"/>
    <rect x="710" y="422" width="112" height="108" rx="14"/>
    <rect x="832" y="422" width="112" height="108" rx="14"/>
    <rect x="954" y="422" width="112" height="108" rx="14"/>
  </g>
  <g font-family="Inter, Arial, sans-serif" font-size="16" font-weight="800" fill="#CBD5E1">
    <text x="364" y="211">1</text><text x="486" y="211">2</text><text x="608" y="211">3</text><text x="730" y="211">4</text><text x="852" y="211">5</text><text x="974" y="211">6</text>
    <text x="364" y="333">7</text><text x="486" y="333">8</text><text x="608" y="333">9</text><text x="730" y="333">10</text><text x="852" y="333">11</text><text x="974" y="333">12</text>
    <text x="364" y="455">13</text><text x="486" y="455">14</text><text x="608" y="455">15</text><text x="730" y="455">16</text><text x="852" y="455">17</text><text x="974" y="455">18</text>
  </g>
  <rect x="360" y="232" width="78" height="22" rx="8" fill="#064E3B" stroke="#10B981"/>
  <text x="372" y="248" fill="#A7F3D0" font-family="Inter, Arial, sans-serif" font-size="12" font-weight="800">Paycheck</text>
  <rect x="482" y="354" width="78" height="22" rx="8" fill="#3B1117" stroke="#EF4444"/>
  <text x="494" y="370" fill="#FECACA" font-family="Inter, Arial, sans-serif" font-size="12" font-weight="800">Rent</text>
  <rect x="726" y="476" width="78" height="22" rx="8" fill="#172554" stroke="#3B82F6"/>
  <text x="738" y="492" fill="#BFDBFE" font-family="Inter, Arial, sans-serif" font-size="12" font-weight="800">Card</text>
  <rect x="848" y="232" width="78" height="22" rx="8" fill="#422006" stroke="#F59E0B"/>
  <text x="860" y="248" fill="#FDE68A" font-family="Inter, Arial, sans-serif" font-size="12" font-weight="800">Utility</text>
</svg>
