<svg width="1200" height="720" viewBox="0 0 1200 720" fill="none" xmlns="http://www.w3.org/2000/svg" role="img" aria-labelledby="title desc">
  <title id="title">Import review workflow</title>
  <desc id="desc">A statement import review screen with matches, categories, and commit controls.</desc>
  <rect width="1200" height="720" rx="32" fill="#080A12"/>
  <rect x="92" y="74" width="1016" height="572" rx="30" fill="#11131C" stroke="#303544" stroke-width="2"/>
  <text x="140" y="132" fill="#F8FAFC" font-family="Inter, Arial, sans-serif" font-size="31" font-weight="850">Review imported transactions</text>
  <text x="140" y="166" fill="#94A3B8" font-family="Inter, Arial, sans-serif" font-size="19">Accept matches before anything changes your calendar.</text>
  <rect x="140" y="218" width="920" height="68" rx="18" fill="#0B0D14" stroke="#303544"/>
  <rect x="140" y="308" width="920" height="68" rx="18" fill="#0B0D14" stroke="#303544"/>
  <rect x="140" y="398" width="920" height="68" rx="18" fill="#0B0D14" stroke="#303544"/>
  <rect x="140" y="488" width="920" height="68" rx="18" fill="#0B0D14" stroke="#303544"/>
  <g font-family="Inter, Arial, sans-serif">
    <text x="170" y="259" fill="#E5E7EB" font-size="20" font-weight="800">Grocery store</text>
    <text x="170" y="349" fill="#E5E7EB" font-size="20" font-weight="800">Paycheck</text>
    <text x="170" y="439" fill="#E5E7EB" font-size="20" font-weight="800">Electric bill</text>
    <text x="170" y="529" fill="#E5E7EB" font-size="20" font-weight="800">Gas station</text>
    <text x="470" y="259" fill="#FCA5A5" font-size="20" font-weight="800">-$84.12</text>
    <text x="470" y="349" fill="#86EFAC" font-size="20" font-weight="800">+$2,100.00</text>
    <text x="470" y="439" fill="#FCA5A5" font-size="20" font-weight="800">-$138.40</text>
    <text x="470" y="529" fill="#FCA5A5" font-size="20" font-weight="800">-$42.08</text>
    <rect x="644" y="236" width="124" height="32" rx="12" fill="#172554" stroke="#3B82F6"/>
    <text x="668" y="258" fill="#BFDBFE" font-size="15" font-weight="800">Matched</text>
    <rect x="644" y="326" width="124" height="32" rx="12" fill="#064E3B" stroke="#10B981"/>
    <text x="674" y="348" fill="#A7F3D0" font-size="15" font-weight="800">Create</text>
    <rect x="644" y="416" width="124" height="32" rx="12" fill="#422006" stroke="#F59E0B"/>
    <text x="680" y="438" fill="#FDE68A" font-size="15" font-weight="800">Review</text>
    <rect x="644" y="506" width="124" height="32" rx="12" fill="#172554" stroke="#3B82F6"/>
    <text x="668" y="528" fill="#BFDBFE" font-size="15" font-weight="800">Matched</text>
    <rect x="858" y="586" width="202" height="54" rx="18" fill="#7C3AED"/>
    <text x="912" y="620" fill="#FFFFFF" font-size="19" font-weight="900">Commit</text>
  </g>
</svg>
