<svg width="1200" height="720" viewBox="0 0 1200 720" fill="none" xmlns="http://www.w3.org/2000/svg" role="img" aria-labelledby="title desc">
  <title id="title">CalBudget mobile overview</title>
  <desc id="desc">A phone-sized CalBudget screen showing today, balance, upcoming items, and quick actions.</desc>
  <rect width="1200" height="720" rx="32" fill="#080A12"/>
  <rect x="438" y="36" width="324" height="648" rx="46" fill="#0B0D14" stroke="#374151" stroke-width="4"/>
  <rect x="474" y="72" width="252" height="558" rx="30" fill="#11131C"/>
  <text x="506" y="122" fill="#A78BFA" font-family="Inter, Arial, sans-serif" font-size="13" font-weight="900" letter-spacing="4">TODAY</text>
  <text x="506" y="156" fill="#F8FAFC" font-family="Inter, Arial, sans-serif" font-size="26" font-weight="900">July 12</text>
  <rect x="506" y="184" width="188" height="84" rx="22" fill="#07180F" stroke="#14532D"/>
  <text x="528" y="218" fill="#94A3B8" font-family="Inter, Arial, sans-serif" font-size="13" font-weight="850">PROJECTED BALANCE</text>
  <text x="528" y="250" fill="#34D399" font-family="Inter, Arial, sans-serif" font-size="28" font-weight="900">$1,240</text>
  <rect x="506" y="296" width="188" height="56" rx="18" fill="#7C3AED"/>
  <text x="554" y="331" fill="#FFFFFF" font-family="Inter, Arial, sans-serif" font-size="18" font-weight="900">+ Add</text>
  <rect x="506" y="380" width="188" height="58" rx="18" fill="#0B0D14" stroke="#303544"/>
  <text x="526" y="414" fill="#E5E7EB" font-family="Inter, Arial, sans-serif" font-size="16" font-weight="850">Paycheck</text>
  <text x="636" y="414" fill="#86EFAC" font-family="Inter, Arial, sans-serif" font-size="16" font-weight="850">+$2,100</text>
  <rect x="506" y="456" width="188" height="58" rx="18" fill="#0B0D14" stroke="#303544"/>
  <text x="526" y="490" fill="#E5E7EB" font-family="Inter, Arial, sans-serif" font-size="16" font-weight="850">Rent</text>
  <text x="642" y="490" fill="#FCA5A5" font-family="Inter, Arial, sans-serif" font-size="16" font-weight="850">-$950</text>
  <rect x="506" y="544" width="48" height="48" rx="16" fill="#181B24" stroke="#303544"/>
  <rect x="576" y="544" width="48" height="48" rx="16" fill="#181B24" stroke="#303544"/>
  <rect x="646" y="544" width="48" height="48" rx="16" fill="#181B24" stroke="#303544"/>
</svg>
