<svg width="1200" height="720" viewBox="0 0 1200 720" fill="none" xmlns="http://www.w3.org/2000/svg" role="img" aria-labelledby="title desc">
  <title id="title">Settings and support menu</title>
  <desc id="desc">A CalBudget profile menu with settings, billing, theme, help, and support options.</desc>
  <rect width="1200" height="720" rx="32" fill="#07080E"/>
  <rect x="360" y="46" width="480" height="628" rx="30" fill="#101219" stroke="#2F3544" stroke-width="2"/>
  <rect x="360" y="46" width="480" height="128" rx="30" fill="#181827"/>
  <circle cx="422" cy="108" r="38" fill="#5B21B6" stroke="#8B5CF6" stroke-width="4"/>
  <text x="405" y="116" fill="#FFFFFF" font-family="Inter, Arial, sans-serif" font-size="23" font-weight="900">CB</text>
  <text x="486" y="102" fill="#F8FAFC" font-family="Inter, Arial, sans-serif" font-size="24" font-weight="850">Your profile</text>
  <text x="486" y="134" fill="#94A3B8" font-family="Inter, Arial, sans-serif" font-size="18">you@example.com</text>
  <g font-family="Inter, Arial, sans-serif">
    <text x="398" y="218" fill="#94A3B8" font-size="15" font-weight="900" letter-spacing="4">ACCOUNT</text>
    <rect x="390" y="240" width="420" height="64" rx="18" fill="#11131C" stroke="#303544"/>
    <text x="438" y="280" fill="#E5E7EB" font-size="21" font-weight="800">Profile settings</text>
    <rect x="390" y="320" width="420" height="64" rx="18" fill="#11131C" stroke="#303544"/>
    <text x="438" y="360" fill="#E5E7EB" font-size="21" font-weight="800">Billing and plan</text>
    <rect x="390" y="400" width="420" height="78" rx="18" fill="#161827" stroke="#7C3AED"/>
    <text x="438" y="430" fill="#E5E7EB" font-size="21" font-weight="800">Theme</text>
    <rect x="438" y="444" width="150" height="24" rx="12" fill="#7C3AED"/>
    <rect x="606" y="444" width="150" height="24" rx="12" fill="#2B3040"/>
    <text x="398" y="526" fill="#94A3B8" font-size="15" font-weight="900" letter-spacing="4">HELP</text>
    <rect x="390" y="548" width="198" height="64" rx="18" fill="#11131C" stroke="#303544"/>
    <text x="430" y="588" fill="#E5E7EB" font-size="20" font-weight="800">Docs</text>
    <rect x="612" y="548" width="198" height="64" rx="18" fill="#11131C" stroke="#303544"/>
    <text x="646" y="588" fill="#E5E7EB" font-size="20" font-weight="800">Support</text>
  </g>
</svg>
